/* XPM */
static char *c55f6aaa206f4c1abcd3ebbf7a4da391CGlVdbTUNzuoelni[] = {
/* columns rows colors chars-per-pixel */
"64 64 7 1 ",
"  c black",
". c #057505",
"X c #7C7C7C",
"o c #01FF09",
"O c #008080",
"+ c #BDBDBB",
"@ c white",
/* pixels */
"                                                                ",
"                                                                ",
"                                                                ",
"                                                                ",
"                                                                ",
"                                                                ",
"                                                                ",
"                                                                ",
"                                                                ",
"                                                                ",
"                                                                ",
"                                                                ",
"                                                                ",
"                                                                ",
"                                                                ",
"                                                                ",
"                        XXXXXXXXXXXXXXXXXXXXX                   ",
"                       X+++++++++++++++++++@X                   ",
"                      X@@@@@@@@@@@@@@@@@@@@XX                   ",
"                     X@++++++++++++++++++++XX                   ",
"                     X@+XXXXXXXXXXXXXXXXX@+XX                   ",
"                     X@+                X@+XX                   ",
"                     X@+  OOOOOOOOOOOOOOX@+XX                   ",
"                     X@+  OOOOOOOOOOOOOOX@+XX                   ",
"                     X@+  OOOOOOOOOOOOOOX@+XX                   ",
"                     X@+  OOOOOOOOOOOOOOX@+XX                   ",
"                     X@+  OOOOOOOOOOOOOOX@+XX                   ",
"                     X@+  OOOOOOOOOOOOOOX@+XX                   ",
"                     X@+  OOOOOOOOOOOOOOX@+XX                   ",
"                     X@+  OOOOOOOOOOOOOOX@+XX                   ",
"                     X@+XXXXXXXXXXXXXXXXX@+XX                   ",
"                     X@+@@@@@@@@@@@@@@@@@@+XX                   ",
"                     X@++++++++++++++++++++XX  XX               ",
"                     X@++++++++++++++++++++XX  XX               ",
"                     XXXXXXXXXXXXXXXXXXXXXXX XXX+               ",
"                                            XXX+X               ",
"                   XXXXXXXXXXXXXXXXXXXXXXXXXX++XX               ",
"                 XX@@@@@@@@@@@@@@@@@@@@@@@@@@XXXX               ",
"                 XX@+++++++++++++++++++++++++XXXX               ",
"                 XX@+++++++++++XXXXXXXXXXXX++XXXX               ",
"                 XX@++oo+++++++            ++XXXX               ",
"                 XX@++..++++++++++++++XX+++++XXXX               ",
"                 XX@+++++++++++++++++++++++++XXXX               ",
"                 XXXX @X  @X @X  @X @X  @X @ XXX                ",
"                X@@X @X @@X @X @@X @X @@X @XX                   ",
"               X@XX XX XXX XX XXX XX XXX XXXX                   ",
"              X@@@@@@@@@@@@@@@@@@@@@@@@@@@+X                    ",
"              X+++++++++++++++++++++++++++X                     ",
"                                                                ",
"                                                                ",
"                                                                ",
"                                                                ",
"                                                                ",
"                                                                ",
"                                                                ",
"                                                                ",
"                                                                ",
"                                                                ",
"                                                                ",
"                                                                ",
"                                                                ",
"                                                                ",
"                                                                ",
"                                                                "
};
