/* XPM */
static char *result[] = {
/* columns rows colors chars-per-pixel */
"64 64 87 1 ",
"  c black",
". c #0B0B0C",
"X c #141414",
"o c #212121",
"O c #143A74",
"+ c #133C7B",
"@ c #37474F",
"# c #14427E",
"$ c #455A64",
"% c #123E82",
"& c #164682",
"* c #184984",
"= c #12438C",
"- c #184C88",
"; c #19508B",
": c #0E4496",
"> c #0E469A",
", c #0F489E",
"< c #104694",
"1 c #134991",
"2 c #104798",
"3 c #124D9B",
"4 c #1A5492",
"5 c #1B5997",
"6 c #13529F",
"7 c #1A5B9B",
"8 c #0D47A0",
"9 c #0E4DA3",
"0 c #0F51A6",
"q c #0F51A9",
"w c #1356A4",
"e c #1B5FA2",
"r c #1154AD",
"t c #155BAC",
"y c #1159B4",
"u c #125EBA",
"i c #1B65A7",
"p c #1761AF",
"a c #1A67AF",
"s c #1864B3",
"d c #1C6BB5",
"f c #1361BB",
"g c #1967B8",
"h c #196CBB",
"j c #1F76BA",
"k c #1D7BBE",
"l c #607D8B",
"z c #1467C3",
"x c #146AC5",
"c c #156ECA",
"v c #1B73C4",
"b c #1672CD",
"n c #1873CB",
"m c #1B78CD",
"M c #1676D1",
"N c #1875D2",
"B c #167CD5",
"V c #1A7BD4",
"C c #177FD9",
"Z c #1A7CD8",
"A c #1388C6",
"S c #1E83D2",
"D c #1684DD",
"F c #1983DC",
"G c #1688DE",
"H c #1D8ADA",
"J c #1F9AD4",
"K c #1B92DE",
"L c #1B87E1",
"P c #178AE3",
"I c #198CE4",
"U c #1B92E4",
"Y c #1B9AE5",
"T c #1A94EB",
"R c #1D9BED",
"E c #1D9DF3",
"W c #10A0E3",
"Q c #1EA2E7",
"! c #1DA2ED",
"~ c #1FA9EF",
"^ c #1EA2F3",
"/ c #1FABF4",
"( c #20ABEE",
") c #21A5F4",
"_ c #20ACF5",
"` c #24B3F6",
"' c #29B6F6",
/* pixels */
"                                                                ",
"                                                                ",
"                                                                ",
"                                                                ",
"                                                                ",
"                                                                ",
"       XXoXXXXX                                                 ",
"      XXXXoXXoXXXoXXXoXXXXXXoXXXX                               ",
"      XXXXoXXXoXXXoXXoXXXXXXoXXXX   .                           ",
"      oooooooooXXXXXXXoXXXoXXXXXXoXXXXXXXXXXXXXXXX .   .        ",
"      ooooooooooooooooooooooooooooXXXXXXoXXXXXXXXXXXXXXXXXoXXX  ",
"      ooo''''''oooooooooooooooooooooooooooooooooooXXXXXXXXXXXX  ",
"      ooo''''''oooooooooooooooooooooooooooooooooooXXXXXXXXXXX.  ",
"      ooo'''''''WWJASkjjjdddiii55ooooooooooooooooooooooooooX.X  ",
"      ooo'''''''~~QKYKSHHmSkvvhaai755444;--*#&&#%*ooooooooo.X.  ",
"      ooo''''`''``/)((QRQRUULLFmmvhsgsssstptwe6331-1=22,oooX.X  ",
"      ooo''''''```///WRRYYTIPLFNmvhggsppptttwww,31===::8oooX.X  ",
"      ooo'''''``/`///~!!RRRTTTULLFVBBbbbxhxfffyrtq332:::ooo.X.  ",
"      ooo''''''`````////^^^ERRTIUIGHDFBBBbbchzuuurrr9,><oooXX.  ",
"      ooo''''`````/`//~/^^^RERTTTIPFFBBBBbbxzzzuuyqr9>>:ooo..X  ",
"      ooo'''''''``````/`/^/^)EEERTIIPPPDDBBMccczzfyy988=ooo.X.  ",
"      ooo'''''''``````/``_//))EERRRITPPPDDDDMMbxxzyuq88%oooX.X  ",
"      ooo'''''''''`````/__`_))/EERRIPTPPGDDCDCMPPxyuq88%ooo.X.  ",
"      ooo'''''''''```````___))/^)ETTTPPPPPDDDDBLDxyyq88%oooX.X  ",
"      ooo'''''''''`'```````///^^)EETTTPPICC''''''fyyq22+ooo.X.  ",
"      ooo''''''''''`''````/`/^^^))E^^''''ZZ''''''uyyq2<+oooX.X  ",
"      ooo''''''''''''`'`/``////^)^EEE''''ZZ''''''fyyq2<Oooo.X.  ",
"      ooo'''''''''''''`'`/``////)^^EE''''ZZ''''''fyyq<<OoooX.X  ",
"      ooo'''''''''''''`````////^))^^ETLZCZZZbcczzuyyr<<OoooXX.  ",
"      ooo'''''''''''''`'````////)^^EE''''ZZ''''''fyy9<<Oooo..X  ",
"      ooo'''''''''''''''```//`//))E^)''''ZZ''''''fyyq:<OoooX..  ",
"      ooo'''''''''''''''```/////)^^^E''''ZZ''''''uyyw<<Oooo.X.  ",
"      ooo'''''''''''''''````__))))EETETTEPC''''''fyy9:1Oooo.XX  ",
"      ooo'''''''''''''`'`___//_))EEEETETTIIPPPDFGbyy0<:OoooX..  ",
"      ooo''''''''''''''````///)))EEEETTTTTIPPPLBBcyy0<<Oooo...  ",
"      ooo''''''''''''''````//_)))))ETTTTTITPPDPBDcyy0<<Oooo..X  ",
"      ooo'''''''''''''`````///~!)EETETTTIIIDPLczffyyq>:OoooXX.  ",
"      ooo'''''''''''''``_`///^!)EEETTTPPIFFZNmczzfyyq:1Oooo..X  ",
"      ooo'''''''''''''```~/!!RQRRRTTTPPPFZZNbbczzfyyq<<Oooo...  ",
"      ooo'''''''''''''``~~~/!QRRRRTTTTPPFZZNbNczzfyyq<<OoooXX.  ",
"      oool@@@@@@'''''''`(((QYYKKIIHHHFVFVmmbncxzzfyyq<:Oooo...  ",
"      ooooooooo$$$$$$$@@@@@@@@@@@@HVmmvvhdhgggspyyttq<<+ooo.X.  ",
"      ooooooooooooooooooooooooooo@@@@@@@@@@@@@$@@$@@,<<<ooo...  ",
"      ooooooooooooooooooooooooooo@@@@@@@@@@@@@$@@$@@9<:=ooo..X  ",
"               ooooooooooooooooooooooooooooooooooo$$@$$@oooXX.  ",
"                              X.Xoooooooooooooooooooooooooo...  ",
"                              .X.oooooooooooooooooooooooooo..X  ",
"                              X.X.X.X             ooooooooo..   ",
"                              XXXX.XX                           ",
"                           XoX.XX.XXXXXX                        ",
"                           XXXXX.XX.XXXo                        ",
"                        ooXXXXXX.X.XXXXXXXX                     ",
"                      ooXooXXoXXXXXoXXXXXXXX                    ",
"                        oXXoXXXoXXXXXoXXXXX.                    ",
"                        oXXoXoXXXXXXXXXXXXX                     ",
"                          .XooXXXoXXXXXX                        ",
"                                .                               ",
"                                                                ",
"                                                                ",
"                                                                ",
"                                                                ",
"                                                                ",
"                                                                ",
"                                                                "
};
