/* XPM */
static char *c8570f693ba94f53f81259395be854a83Pz3h2c80L04kHXF[] = {
/* columns rows colors chars-per-pixel */
"64 64 193 2 ",
"   c None",
".  c #242E93",
"X  c #242F93",
"o  c #252F94",
"O  c #253094",
"+  c #263094",
"@  c #263194",
"#  c #273194",
"$  c #273195",
"%  c #273295",
"&  c #283295",
"*  c #283395",
"=  c #283296",
"-  c #293396",
";  c #283397",
":  c #293496",
">  c #293497",
",  c #2B3596",
"<  c #2A3599",
"1  c #2B369A",
"2  c #2B379B",
"3  c #2C3799",
"4  c #2E399B",
"5  c #2C389C",
"6  c #2D389D",
"7  c #2E3A9F",
"8  c #303A99",
"9  c #333D9B",
"0  c #303B9D",
"q  c #333E9F",
"w  c #333F9F",
"e  c #2F3BA0",
"r  c #313DA3",
"t  c #323FA4",
"y  c #323FA5",
"u  c #37419D",
"i  c #39429D",
"p  c #3C469F",
"a  c #3441A7",
"s  c #3743A6",
"d  c #3843A3",
"f  c #3844A3",
"g  c #3542A8",
"h  c #3543A9",
"j  c #3442AB",
"k  c #3543AB",
"l  c #3644AA",
"z  c #3644AB",
"x  c #3744AB",
"c  c #3644AC",
"v  c #3744AC",
"b  c #3745AC",
"n  c #3845AC",
"m  c #3846AC",
"M  c #3846AD",
"N  c #3A48AD",
"B  c #3A48AE",
"V  c #3C49AE",
"C  c #3D4BAF",
"Z  c #3F4DB1",
"A  c #4049A1",
"S  c #404DAF",
"D  c #4450AD",
"F  c #4451AE",
"G  c #515AA9",
"H  c #525AAA",
"J  c #404EB1",
"K  c #4351B3",
"L  c #4451B3",
"P  c #4754B3",
"I  c #4755B5",
"U  c #4A56B1",
"Y  c #4A57B2",
"T  c #4A57B3",
"R  c #4856B5",
"E  c #4A56B4",
"W  c #4B59B7",
"Q  c #4E5CB6",
"!  c #4C5AB8",
"~  c #515CB0",
"^  c #525EB7",
"/  c #505DBA",
"(  c #505EBA",
")  c #5360BA",
"_  c #5361BC",
"`  c #5462BC",
"'  c #5563BC",
"]  c #5563BD",
"[  c #5765BD",
"{  c #5865BD",
"}  c #5967BF",
"|  c #5D68BB",
" . c #5A68BF",
".. c #636BB2",
"X. c #6C74B7",
"o. c #6E75B7",
"O. c #5967C0",
"+. c #5968C0",
"@. c #5A68C0",
"#. c #5B69C0",
"$. c #5A69C1",
"%. c #5B69C1",
"&. c #5C6AC1",
"*. c #5D6AC1",
"=. c #5D6BC1",
"-. c #5D6BC2",
";. c #5E6BC2",
":. c #5E6CC2",
">. c #6270C3",
",. c #6572C4",
"<. c #6974C1",
"1. c #6875C5",
"2. c #6976C6",
"3. c #6C78C7",
"4. c #6E7AC7",
"5. c #6E7BC8",
"6. c #7E87C9",
"7. c #7C87CD",
"8. c #7D88CD",
"9. c #848AC2",
"0. c #878DC4",
"q. c #9499CA",
"w. c #959ACB",
"e. c #9198CD",
"r. c #8993D2",
"t. c #9097D0",
"y. c #969DD3",
"u. c #909AD5",
"i. c #939CD6",
"p. c #989FD4",
"a. c #9EA2CF",
"s. c #A1A6D1",
"d. c #A0A7D7",
"f. c #A2AADB",
"g. c #A4ACDC",
"h. c #A5ACDC",
"j. c #B0B5DB",
"k. c #B2B7DF",
"l. c #B6BADB",
"z. c #BBBEDD",
"x. c #AEB5E0",
"c. c #AFB5E0",
"v. c #AFB6E0",
"b. c #B5BBE2",
"n. c #B8BEE3",
"m. c #B8BEE4",
"M. c #C2C6E5",
"N. c #C8CCE9",
"B. c #CBCFEB",
"V. c #D0D2E7",
"C. c #D0D3E7",
"Z. c #D2D4E8",
"A. c #D3D5E9",
"S. c #D5D7EB",
"D. c #D1D4EC",
"F. c #D5D8ED",
"G. c #DADCEC",
"H. c #DBDEF1",
"J. c #DDDFF1",
"K. c #DFE0EF",
"L. c #DDE0F1",
"P. c #DDE0F2",
"I. c #DEE0F2",
"U. c #E0E2EF",
"Y. c #E1E2F0",
"T. c #E1E3F0",
"R. c #E0E2F1",
"E. c #E3E5F3",
"W. c #E6E8F5",
"Q. c #E9EBF5",
"!. c #E8EAF6",
"~. c #F2F3F8",
"^. c #F3F3F8",
"/. c #F2F2F9",
"(. c #F5F6FB",
"). c #F7F7FA",
"_. c #F6F7FB",
"`. c #F8F8FB",
"'. c #F8F9FC",
"]. c #FAFBFC",
"[. c #FBFBFC",
"{. c #FBFBFD",
"}. c #FBFCFD",
"|. c #FCFCFD",
" X c #FCFDFD",
".X c #FDFDFD",
"XX c #FEFDFD",
"oX c #FEFEFD",
"OX c #FDFDFE",
"+X c #FEFEFE",
"@X c #FFFEFE",
"#X c #FFFFFE",
"$X c white",
/* pixels */
"                                                                                                                                ",
"                                                                                                                                ",
"                                                                                                                                ",
"                                                                                                                                ",
"                                                                                                                                ",
"                                                                                                                                ",
"                                                                                                                                ",
"                                                                                                                                ",
"                                                                                                                                ",
"                                                                                                                                ",
"                                                            -. .&.&.                                                            ",
"                                                        -.-.-. .&.&.&.&.                                                        ",
"                                                    &.&.%.-.%.-.&.&.&.&.&.&.                                                    ",
"                                                -.&.&.&.-.%.-.%.&.&.&.&.&.&.&.-.                                                ",
"                                              &.&.&.&.&.%.-.%.%.&.&.&.&.&.&.&.&.&.                                              ",
"                                          &.&.&.&.&.&.&.-.%.%.%.&.%.%.&.&.&.&.&.&.&.&.                                          ",
"                                      &.&.&.&.&.%.%.%.%. .-.,.2.2.,.-.%.O.%.-.-.&.&.&.&.&.                                      ",
"                                  &.&.&.&.&.&.&.%.%.2.r.x.B.P.E.E.P.B.v.r.2.+.%.&.&.&.&.&.&.-.                                  ",
"                              &.&.&.&.&.&.&.&.%.5.g.I.(.XXXXXXXXXXXXXXXX(.L.g.3.%.%.&.&.&.&.&.&.-.                              ",
"                            &.&.&.&.&.&.&.&.&.u.I.XXXXXXXXXXXXXXXXXXXXXXXXXXXXI.u.-.%.&.&.&.&.&.&.&.                            ",
"                        &.&.&.&.-.%.-.%.&.>.x.(.XXXXXXXXXX}.}.XX}.XX}.XXXXXXXXXX(.x.>.%.&.&.&.&.&.&.%.W                         ",
"                        &.&.&.&.%.-.%.%.>.n.{.XXXX}.XX}.XXXXXXXXXXXX}.XX}.XX}.XXXX}.b.>.%.&.&.&. .( J n                         ",
"                        &.&.&.&.-.%.%.-.x.}.XXXXXXXXXX}.}.XXXXXXXXXXXXXX}.XXXXXXXXXXXXx.-.&.%._ L n b b                         ",
"                        &.&.&.&.%.-.%.u.(.XXXXXXXX}.XXXXXXXXXXXXXXXXXXXXXXXX}.}.XX}.XX`.i.] I N n b b b                         ",
"                        &.&.&.&.-.%.3.L.XXXXXXXXXXXXXXXX}.W.N.b.b.N.W.}.XXXXXXXXXXXXXX/.p.Z b b b b b b                         ",
"                        &.&.&.&. . .g.XXXX}.XX}.}.XXXX!.f.5.-. .%.-.5.f.W.XXXXXXXX`.M.<.N b b b b b b b                         ",
"                        &.&.&.&.%.3.L.XXXXXX}.XXXXXXP.7. . . .-.%.%.%.%.7.H.XX}.F.6.S j b b b b b b b b                         ",
"                        &.&.&.&.%.r.(.XX}.XXXXXXXXW.7.+.-.%.-.-.-.%.%.-.%.8.D.p.E j b b b b b b b b b b                         ",
"                        &.&.&.&.%.x.XXXXXXXXXXXXXXg.%.%.%.%.-. .&.&.&.&.+.! P b z b b b b b b b b b b b                         ",
"                        &.&.&.%.-.B.XX}.XXXXXXXXW.5.%.-.%.-.-. .&.&.%.! Z b z b b b b b b b b b b b b b                         ",
"                        &.&.&.%.,.H.XXXX}.XX}.XXN.%.%.%.-.-. .-.%._ K b b b b b b b b b b b b b b b b b                         ",
"                        &.&.&.%.2.E.XXXXXXXXXXXXb.%.%.-. .-.-.' I N b b b b b b b b b b b b b b b b b b                         ",
"                        &.&.&.%.2.E.XX}.XX}.XXXXb.} -.-.-.] F 7 e z z z m b b b b b b b b b b b b b b b                         ",
"                        &.&.&.&.,.L.XXXXXXXXXXXXN.-.-. .Y u * @ $ < r z b b b b b b b b b b b b b b b b                         ",
"                        &.&.&.&.-.B.XXXX}.XXXXXXW.5.Q s * @ $ $ $ $ * 2 a z b b b b b b b b b b b b b b                         ",
"                        &.&.&.&.%.x.XXXXXXXXXXXX}.e.* @ $ $ * $ $ $ $ $ @ 5 Y N z b b b b b b b b b b b                         ",
"                        &.&.&.&.%.r.(.XXXXXX}.}.XXU.G @ $ $ $ * $ $ $ $ X G S.k.| b b z b b b b b b b b                         ",
"                        &.&.&.&.%.2.L.XX}.XXXXXXXXXXC.G O $ $ $ $ $ @ @ G V.XXXXQ.d.( z z b b b b b b b                         ",
"                        &.&.&.&.%.%.g.XXXXXXXXXXXXXXXXT.9.A * $ @ * A 9.E.XXXXXXXXXXL.t.W z b b b b b b                         ",
"                        &.&.&.&.&._ ~ A.XXXX}.}.XXXXXXXX}.L.l.a.a.l.L.}.XXXXXXXXXXXXXXXXj.s k k b b b b                         ",
"                        &.&.&.] F 4 O X.~.XX}.XXXXXX}.}.XXXXXXXXXXXXXXXX}.XXXXXX}.XXXX/.o.$ 2 a z b b n                         ",
"                        &. .Y w $ $ $ * q.].XX}.}.XXXXXXXXXXXXXXXXXX}.XXXXXX}.XXXXXX}.w.* $ $ * 5 a b n                         ",
"                        Q d & @ $ $ * $ 8 s.}.XXXXXXXXXX}.}.XXXXXXXXXXXXXX}.XXXXXX].s.4 @ $ $ $ & & 5 z                         ",
"                        4 @ $ $ $ * $ * @ 4 q./.XXXX}.}.XXXXXX}.}.XXXX}.XX}.XXXX^.q.4 @ * $ * * $ & $ <                         ",
"                            , $ @ * $ * , @ , X.A.XXXXXXXXXXXX}.XXXXXXXXXXXXXXA.o., O * @ * * $ $ &                             ",
"                                * $ * $ @ $ @ O i 0.A.`.XXXXXXXXXXXXXXXX`.A.0.i O $ * $ * @ $ *                                 ",
"                                  * $ * * $ $ $ @ O u ..w.z.C.G.G.C.z.q...u X $ @ * $ * @ $ *                                   ",
"                                      * @ * $ * $ $ $ X $ < w u i w , $ X $ $ $ $ $ * $ *                                       ",
"                                          , $ $ $ * $ * * @ @ @ @ @ ; @ $ * $ * * $ &                                           ",
"                                              & * $ * $ $ * $ * $ $ @ * * $ * $ $                                               ",
"                                                * * $ * * $ * $ * @ * @ $ * * *                                                 ",
"                                                    * $ $ * $ * @ ; @ * $ *                                                     ",
"                                                        & $ * $ * $ * $                                                         ",
"                                                            $ * @ ;                                                             ",
"                                                                                                                                ",
"                                                                                                                                ",
"                                                                                                                                ",
"                                                                                                                                ",
"                                                                                                                                ",
"                                                                                                                                ",
"                                                                                                                                ",
"                                                                                                                                ",
"                                                                                                                                ",
"                                                                                                                                "
};
