/* XPM */
static char *e4487f6698524f329fe5b9c03a4a05afHZUk4Ez07nR2JpLj[] = {
/* columns rows colors chars-per-pixel */
"64 64 2 1 ",
"  c black",
". c #00EB3F",
/* pixels */
" ..   .   ..   .   ..   .   ..   .   ..   .   ..   .   ..   .   ",
".  . ..  .  . ..  .  . ..  .  . ..  .  . ..  .  . ..  .  . ..  .",
".  .  .  .  .  .  .  .  .  .  .  .  .  .  .  .  .  .  .  .  .  .",
".  .  .  .  .  .  .  .  .  .  .  .  .  .  .  .  .  .  .  .  .  .",
" ..  ...  ..  ...  ..  ...  ..  ...  ..  ...  ..  ...  ..  ...  ",
"                                                                ",
" ..   .   ..   .   ..   .   ..   ..   .   ..   ..   .   ..   .  ",
".  . ..  .  . ..  .  . ..  .  . .  . ..  .  . .  . ..  .  . ..  ",
".  .  .  .  .  .  .  .  .  .  . .  .  .  .  . .  .  .  .  .  .  ",
".  .  .  .  .  .  .  .  .  .  . .  .  .  .  . .  .  .  .  .  .  ",
" ..  ...  ..  ...  ..  ...  ..   ..  ...  ..   ..  ...  ..  ... ",
"                                                                ",
" ..   .   ..   .   ..   ..   .   ..   .   ..   .   ..   .   ..  ",
".  . ..  .  . ..  .  . .  . ..  .  . ..  .  . ..  .  . ..  .  . ",
".  .  .  .  .  .  .  . .  .  .  .  .  .  .  .  .  .  .  .  .  . ",
".  .  .  .  .  .  .  . .  .  .  .  .  .  .  .  .  .  .  .  .  . ",
" ..  ...  ..  ...  ..   ..  ...  ..  ...  ..  ...  ..  ...  ..  ",
"                                                                ",
" ..   .   ..   .   ..   ..   .   ..   ..   .   ..   .   ..   .  ",
".  . ..  .  . ..  .  . .  . ..  .  . .  . ..  .  . ..  .  . ..  ",
".  .  .  .  .  .  .  . .  .  .  .  . .  .  .  .  .  .  .  .  .  ",
".  .  .  .  .  .  .  . .  .  .  .  . .  .  .  .  .  .  .  .  .  ",
" ..  ...  ..  ...  ..   ..  ...  ..   ..  ...  ..  ...  ..  ... ",
"                                                                ",
"                                                                ",
" ..   .   ..   .   ..   .   ..   .   ..   .   ..   .   ..   .   ",
".  . ..  .  . ..  .  . ..  .  . ..  .  . ..  .  . ..  .  . ..  .",
".  .  .  .  .  .  .  .  .  .  .  .  .  .  .  .  .  .  .  .  .  .",
".  .  .  .  .  .  .  .  .  .  .  .  .  .  .  .  .  .  .  .  .  .",
" ..  ...  ..  ...  ..  ...  ..  ...  ..  ...  ..  ...  ..  ...  ",
"                                                                ",
" ..   .   ..   .   .   ..   .   ..   .   ..   .   ..   .   ..   ",
".  . ..  .  . ..  ..  .  . ..  .  . ..  .  . ..  .  . ..  .  . .",
".  .  .  .  .  .   .  .  .  .  .  .  .  .  .  .  .  .  .  .  . .",
".  .  .  .  .  .   .  .  .  .  .  .  .  .  .  .  .  .  .  .  . .",
" ..  ...  ..  ... ...  ..  ...  ..  ...  ..  ...  ..  ...  ..   ",
"                                                                ",
" .   ..   .   ..   ..   .   ..   .   ..   .   ..   .   ..   .   ",
"..  .  . ..  .  . .  . ..  .  . ..  .  . ..  .  . ..  .  . ..  .",
" .  .  .  .  .  . .  .  .  .  .  .  .  .  .  .  .  .  .  .  .  .",
" .  .  .  .  .  . .  .  .  .  .  .  .  .  .  .  .  .  .  .  .  .",
"...  ..  ...  ..   ..  ...  ..  ...  ..  ...  ..  ...  ..  ...  ",
"                                                                ",
" ..   .   ..   .   ..   ..   .   ..   .   .   ..   .   ..   .   ",
".  . ..  .  . ..  .  . .  . ..  .  . ..  ..  .  . ..  .  . ..   ",
".  .  .  .  .  .  .  . .  .  .  .  .  .   .  .  .  .  .  .  .   ",
".  .  .  .  .  .  .  . .  .  .  .  .  .   .  .  .  .  .  .  .   ",
" ..  ...  ..  ...  ..   ..  ...  ..  ... ...  ..  ...  ..  ...  ",
"                                                                ",
" .   ..   ..   .   ..   .   ..   ..   .   ..   .   ..   ..   .  ",
"..  .  . .  . ..  .  . ..  .  . .  . ..  .  . ..  .  . .  . ..  ",
" .  .  . .  .  .  .  .  .  .  . .  .  .  .  .  .  .  . .  .  .  ",
" .  .  . .  .  .  .  .  .  .  . .  .  .  .  .  .  .  . .  .  .  ",
"...  ..   ..  ...  ..  ...  ..   ..  ...  ..  ...  ..   ..  ... ",
"                                                                ",
" ..   .   ..   .   ..   ..   .   ..   .   ..   .   ..   ..   .  ",
".  . ..  .  . ..  .  . .  . ..  .  . ..  .  . ..  .  . .  . ..  ",
".  .  .  .  .  .  .  . .  .  .  .  .  .  .  .  .  .  . .  .  .  ",
".  .  .  .  .  .  .  . .  .  .  .  .  .  .  .  .  .  . .  .  .  ",
" ..  ...  ..  ...  ..   ..  ...  ..  ...  ..  ...  ..   ..  ... ",
"                                                                ",
" ..   .   ..   ..   ..   ..   .   ..   .   ..   ..   .   .   .  ",
".  . ..  .  . .  . .  . .  . ..  .  . ..  .  . .  . ..  ..  ..  ",
".  .  .  .  . .  . .  . .  .  .  .  .  .  .  . .  .  .   .   .  "
};
